<svg width="18" height="8" viewBox="0 0 18 8" fill="none" xmlns="http://www.w3.org/2000/svg">
<path fill-rule="evenodd" clip-rule="evenodd" d="M14 1.75C13.0215 1.75 12.1871 2.37503 11.8778 3.24993C11.7398 3.64047 11.3113 3.84517 10.9208 3.70713C10.5302 3.56909 10.3255 3.1406 10.4636 2.75007C10.978 1.29459 12.3661 0.25 14 0.25C16.0711 0.25 17.75 1.92893 17.75 4C17.75 6.07107 16.0711 7.75 14 7.75H1C0.585786 7.75 0.25 7.41421 0.25 7C0.25 6.58579 0.585786 6.25 1 6.25H14C15.2426 6.25 16.25 5.24264 16.25 4C16.25 2.75736 15.2426 1.75 14 1.75Z" fill="#215EE9"/>
</svg>
